<svg xmlns="http://www.w3.org/2000/svg" width="30" height="30" viewBox="0 0 30 30">
  <g id="box-icon" transform="translate(-91.298 39.603)">
    <path id="Path_600" data-name="Path 600" d="M116.325-9.6H96.271A4.972,4.972,0,0,1,91.3-14.576V-34.63A4.972,4.972,0,0,1,96.271-39.6h20.055A4.972,4.972,0,0,1,121.3-34.63v20.055A4.972,4.972,0,0,1,116.325-9.6" fill="#0065b4"/>
    <path id="Path_601" data-name="Path 601" d="M107.136-25.877a4.078,4.078,0,0,0-3.6,2.167,4.076,4.076,0,0,0-3.6-2.167,4.07,4.07,0,0,0-2.448.816V-28.5a.815.815,0,0,0-.816-.8.814.814,0,0,0-.814.8v6.767h0a4.077,4.077,0,0,0,4.077,4.011,4.077,4.077,0,0,0,3.6-2.166,4.079,4.079,0,0,0,3.6,2.166,4.079,4.079,0,0,0,4.079-4.08,4.079,4.079,0,0,0-4.079-4.078m-7.207,6.525A2.447,2.447,0,0,1,97.481-21.8a2.447,2.447,0,0,1,2.448-2.446,2.445,2.445,0,0,1,2.445,2.445,2.445,2.445,0,0,1-2.445,2.447m7.207,0a2.447,2.447,0,0,1-2.448-2.447,2.446,2.446,0,0,1,2.448-2.445,2.445,2.445,0,0,1,2.446,2.445,2.446,2.446,0,0,1-2.446,2.447" transform="translate(-0.484 -1.095)" fill="#fff"/>
    <path id="Path_602" data-name="Path 602" d="M119.312-18.671l-2.216-2.72,2.219-2.724a.773.773,0,0,0-.187-1.128.941.941,0,0,0-1.232.148h0l-1.91,2.341L114.078-25.1h0a.939.939,0,0,0-1.232-.148.772.772,0,0,0-.185,1.128h0l2.215,2.724-2.215,2.72h0a.773.773,0,0,0,.185,1.129.94.94,0,0,0,1.232-.149l1.908-2.338,1.907,2.338a.942.942,0,0,0,1.232.149.773.773,0,0,0,.187-1.129" transform="translate(-2.253 -1.509)" fill="#fff"/>
  </g>
</svg>
