<svg xmlns="http://www.w3.org/2000/svg" width="30.002" height="30" viewBox="0 0 30.002 30">
  <g id="calendar-icon" transform="translate(-154.736 102.359)">
    <path id="Path_603" data-name="Path 603" d="M166.01-100.762a1.17,1.17,0,0,1,.685.06,1.074,1.074,0,0,1,.613.752,1.2,1.2,0,0,1-.091.687,1.054,1.054,0,0,1-1.189.567,1.085,1.085,0,0,1-.824-1.049A1.067,1.067,0,0,1,166.01-100.762Z" transform="translate(-3.322 -0.499)" fill="#fff"/>
    <path id="Path_604" data-name="Path 604" d="M185.919-100.763a1.152,1.152,0,0,1,.691.069,1.083,1.083,0,0,1,.618.906,1.112,1.112,0,0,1-.317.807,1.062,1.062,0,0,1-.719.315,1.071,1.071,0,0,1-.99-.625,1.275,1.275,0,0,1-.078-.665A1.07,1.07,0,0,1,185.919-100.763Z" transform="translate(-9.642 -0.499)" fill="#fff"/>
    <path id="Path_605" data-name="Path 605" d="M184.3-77.22q.807,0,1.612,0c-.007,2.136,0,4.273,0,6.409H184.3C184.3-72.948,184.3-75.084,184.3-77.22Z" transform="translate(-9.381 -7.978)" fill="#fff"/>
    <g id="Group_920" data-name="Group 920" transform="translate(156.17 -102.359)">
      <g id="Group_919" data-name="Group 919">
        <path id="Path_606" data-name="Path 606" d="M158.155-102.2a2.5,2.5,0,0,1,1.079-.162h22.589a2.139,2.139,0,0,1,1.954,1.246,2.133,2.133,0,0,1,.194.953c0,.732.008,1.464,0,2.2a2.163,2.163,0,0,0-.763-.119q-12.78,0-25.559,0a2.371,2.371,0,0,0-.8.118c-.011-.76-.005-1.521-.008-2.281A2.134,2.134,0,0,1,158.155-102.2Zm5.2.934a1.067,1.067,0,0,0-.805,1.016,1.085,1.085,0,0,0,.824,1.049,1.054,1.054,0,0,0,1.189-.567,1.2,1.2,0,0,0,.091-.687,1.074,1.074,0,0,0-.613-.752A1.17,1.17,0,0,0,163.354-101.261Zm13.59,0a1.07,1.07,0,0,0-.795.807,1.275,1.275,0,0,0,.078.665,1.071,1.071,0,0,0,.99.625,1.062,1.062,0,0,0,.719-.315,1.112,1.112,0,0,0,.317-.807,1.083,1.083,0,0,0-.618-.906A1.152,1.152,0,0,0,176.944-101.263Z" transform="translate(-156.836 102.359)" fill="#c7c7c7"/>
      </g>
      <path id="Path_607" data-name="Path 607" d="M184.037-86.633a.821.821,0,0,1,.38-.038c-.008,2.143,0,4.288,0,6.431v.019q-.806-.005-1.612,0v-.019q0-2.223,0-4.445c-1.072.356-2.141.718-3.214,1.072,0-.484,0-.968,0-1.452C181.067-85.593,182.554-86.108,184.037-86.633Z" transform="translate(-164.056 97.382)" fill="#c7c7c7"/>
      <path id="Path_608" data-name="Path 608" d="M166.286-85.862a4.143,4.143,0,0,1,2.351-.808,4.507,4.507,0,0,1,2.423.528,3.012,3.012,0,0,1,1.28,1.473,4.017,4.017,0,0,1,.251,1.95,3.186,3.186,0,0,1-1.922,2.32,2.478,2.478,0,0,1,.394.156,1.116,1.116,0,0,1-.252.023c-1.119-.008-2.238.008-3.357-.008,0-.243-.01-.486.005-.729a5.865,5.865,0,0,0,2.413-.274,1.958,1.958,0,0,0,1.169-1.524,2.714,2.714,0,0,0-.367-1.876,1.914,1.914,0,0,0-1.306-.739,2.751,2.751,0,0,0-2,.386,2.12,2.12,0,0,0-.846,1.77c-.517.014-1.036,0-1.554.005a3.8,3.8,0,0,1,.106-.846A3.27,3.27,0,0,1,166.286-85.862Z" transform="translate(-159.418 97.381)" fill="#c7c7c7"/>
    </g>
    <g id="Group_921" data-name="Group 921" transform="translate(154.791 -98.081)">
      <path id="Path_609" data-name="Path 609" d="M156.2-95.973a2.371,2.371,0,0,1,.8-.118q12.78,0,25.56,0a2.163,2.163,0,0,1,.763.119,2.139,2.139,0,0,1,1.41,1.737,2.272,2.272,0,0,0-.958-1.343,2.187,2.187,0,0,0-1.173-.341q-12.821.008-25.642.005a2.17,2.17,0,0,0-1.7.767,3.5,3.5,0,0,0-.442.739A2.142,2.142,0,0,1,156.2-95.973Z" transform="translate(-154.817 96.092)" fill="#4483ef"/>
      <path id="Path_610" data-name="Path 610" d="M175.218-77.244l.03,0v.019c.008,2.136,0,4.273,0,6.408h1.606c0-2.137,0-4.273,0-6.409v-.019l.026,0a6.692,6.692,0,0,0,.712.014q3.02,0,6.041,0c.232,3.367.451,6.735.681,10.1a3.468,3.468,0,0,1-.036,1.158l-.01.012a1.96,1.96,0,0,0-.226.378,2.145,2.145,0,0,1-1.808,1.024q-12.048-.006-24.095,0a2.879,2.879,0,0,1-.754-.053,2.182,2.182,0,0,1-1.337-1.023,2.036,2.036,0,0,0-.192-.324l-.01-.014a5.235,5.235,0,0,1-.008-1.539c.221-3.238.431-6.478.655-9.716q4.015-.01,8.03,0c0,.154,0,.308,0,.462a6.794,6.794,0,0,1,2.539.251,1.96,1.96,0,0,1,1.16,1.225,3.045,3.045,0,0,1-.055,1.914,1.956,1.956,0,0,1-1.282,1.182,3.224,3.224,0,0,1-2.165-.1,1.977,1.977,0,0,1-1.12-1.234,2.619,2.619,0,0,1-.112-.755c-.513,0-1.026,0-1.539,0a3.431,3.431,0,0,0,.529,1.852,3.417,3.417,0,0,0,1.641,1.286,5.141,5.141,0,0,0,2.632.262,3.826,3.826,0,0,0,2.275-1.174,3.49,3.49,0,0,0,.846-2.175,3.11,3.11,0,0,0-.6-2.145,3.46,3.46,0,0,0-1.018-.836,4.183,4.183,0,0,1,.555-.017q2.846,0,5.69,0C174.742-77.236,174.981-77.216,175.218-77.244Z" transform="translate(-155.125 90.111)" fill="#4483ef"/>
    </g>
    <g id="Group_922" data-name="Group 922" transform="translate(154.736 -97.91)">
      <path id="Path_611" data-name="Path 611" d="M155.234-95.068a2.17,2.17,0,0,1,1.7-.767q12.821,0,25.642-.005a2.187,2.187,0,0,1,1.173.341,2.272,2.272,0,0,1,.958,1.343,1.792,1.792,0,0,1,.008.582c-.464,3.478-.945,6.955-1.4,10.433-1.933,0-3.864,0-5.8,0-.322,0-.644.012-.966-.005l-.026,0c0-2.143,0-4.288,0-6.431a.822.822,0,0,0-.38.038c-1.483.525-2.971,1.04-4.453,1.569.005.484,0,.968,0,1.452,1.072-.354,2.142-.716,3.214-1.072q0,2.223,0,4.445l-.03,0c-2.245.016-4.491,0-6.735.009a.856.856,0,0,1-.334-.015,2.477,2.477,0,0,0-.394-.156,3.186,3.186,0,0,0,1.922-2.32,4.017,4.017,0,0,0-.251-1.95,3.012,3.012,0,0,0-1.28-1.473,4.507,4.507,0,0,0-2.423-.528,4.143,4.143,0,0,0-2.351.808,3.27,3.27,0,0,0-1.208,1.807,3.8,3.8,0,0,0-.106.846c.519,0,1.037.009,1.554-.005a2.12,2.12,0,0,1,.846-1.77,2.751,2.751,0,0,1,2-.386,1.914,1.914,0,0,1,1.306.739,2.714,2.714,0,0,1,.367,1.876,1.958,1.958,0,0,1-1.169,1.524,5.865,5.865,0,0,1-2.413.274h-.02c.008.243,0,.487.005.73q-4.018-.006-8.035,0-.685-5.113-1.38-10.222a2.383,2.383,0,0,1,.01-.973A3.5,3.5,0,0,1,155.234-95.068Z" transform="translate(-154.736 95.841)" fill="#3664d0"/>
      <path id="Path_612" data-name="Path 612" d="M155.9-60.71a2.036,2.036,0,0,1,.192.324,2.182,2.182,0,0,0,1.337,1.023,2.88,2.88,0,0,0,.754.053q12.048,0,24.095,0a2.145,2.145,0,0,0,1.808-1.024,1.959,1.959,0,0,1,.226-.378,2.127,2.127,0,0,1-1.4,1.468,3.632,3.632,0,0,1-1.171.1H158.267a2.912,2.912,0,0,1-.932-.092A2.133,2.133,0,0,1,155.9-60.71Z" transform="translate(-155.105 84.692)" fill="#3664d0"/>
    </g>
  </g>
</svg>
