<svg xmlns="http://www.w3.org/2000/svg" width="30" height="30" viewBox="0 0 30 30">
  <g id="claims-icon" transform="translate(-211.656 103.001)">
    <circle id="Ellipse_184" data-name="Ellipse 184" cx="15" cy="15" r="15" transform="translate(211.656 -103.001)" fill="#19558a"/>
    <path id="claims" d="M238.365-85.522a8.7,8.7,0,0,0-3.372-1.415l-1.95-.46V-92.36a4.317,4.317,0,0,1,.955.33,2.793,2.793,0,0,1,1.573,2.5h3.914a5.807,5.807,0,0,0-2.309-4.742,8.322,8.322,0,0,0-4.133-1.564v-1.72h-2.033v1.676a7.653,7.653,0,0,0-4.819,1.708,5.6,5.6,0,0,0-1.928,4.351,4.754,4.754,0,0,0,1.971,4.22,13.146,13.146,0,0,0,4.275,1.494l.5.11v5.275a3.647,3.647,0,0,1-2.433-1.139,3.954,3.954,0,0,1-.743-2h-3.889a5.753,5.753,0,0,0,2.206,4.781,8.775,8.775,0,0,0,4.859,1.688v1.7h2.033v-1.677a8.183,8.183,0,0,0,5-1.741,5.594,5.594,0,0,0,2.066-4.437A4.773,4.773,0,0,0,238.365-85.522Zm-9.384-3.029a1.672,1.672,0,0,1-.949-1.561,2.008,2.008,0,0,1,.963-1.772,4.214,4.214,0,0,1,2.015-.606v4.609A9.484,9.484,0,0,1,228.981-88.551Zm5.456,9.576a6.009,6.009,0,0,1-1.394.27v-4.843a8.3,8.3,0,0,1,2.283.817,1.666,1.666,0,0,1,.854,1.495A2.269,2.269,0,0,1,234.437-78.975Z" transform="translate(-5.371 -2.379)" fill="#fff"/>
  </g>
</svg>
