<svg xmlns="http://www.w3.org/2000/svg" width="29.799" height="29.797" viewBox="0 0 29.799 29.797">
  <g id="clarizen-icon" transform="translate(-139.615 -10.859)">
    <g id="Group_926" data-name="Group 926" transform="translate(139.615 10.859)">
      <g id="juhmzpfv88v">
        <g id="Group_925" data-name="Group 925">
          <g id="juhmzpfn88r">
            <path id="Path_613" data-name="Path 613" d="M169.413,35.442a5.206,5.206,0,0,1-5.215,5.215H144.83a5.206,5.206,0,0,1-5.215-5.215V16.073a5.206,5.206,0,0,1,5.215-5.214H164.2a5.206,5.206,0,0,1,5.215,5.214Z" transform="translate(-139.615 -10.859)" fill="#00a1de" fill-rule="evenodd"/>
          </g>
          <g id="juhmzpfq88s" transform="translate(7.083 4.726)">
            <path id="Path_614" data-name="Path 614" d="M162.413,35.536V32.269c0-.249-.224-.418-.549-.418h-7.255a2.311,2.311,0,0,1-2.544-1.97V21.748a2.31,2.31,0,0,1,2.544-1.969h7.25a.492.492,0,0,0,.549-.449V16.088a.492.492,0,0,0-.549-.449h-7.25c-4.313,0-7.829,2.767-7.829,6.109V29.9c0,3.34,3.514,6.083,7.829,6.083h7.25c.324-.025.549-.224.549-.449" transform="translate(-146.78 -15.639)" fill="#fff" fill-rule="evenodd"/>
          </g>
        </g>
      </g>
    </g>
  </g>
</svg>
