<svg xmlns="http://www.w3.org/2000/svg" xmlns:xlink="http://www.w3.org/1999/xlink" width="34.635" height="30" viewBox="0 0 34.635 30">
  <defs>
    <radialGradient id="radial-gradient" cx="100.899" cy="-111.64" r="184.92" gradientTransform="matrix(0.316, 0.182, 0.182, -0.316, 7.852, -48.958)" gradientUnits="userSpaceOnUse">
      <stop offset="0" stop-color="#4387fd"/>
      <stop offset="0.65" stop-color="#3078f0"/>
      <stop offset="0.91" stop-color="#2b72ea"/>
      <stop offset="1" stop-color="#286ee6"/>
    </radialGradient>
    <radialGradient id="radial-gradient-2" cx="102.953" cy="-119.274" r="80.556" gradientTransform="matrix(0.726, 0.419, 0.419, -0.726, 6.295, -28.524)" gradientUnits="userSpaceOnUse">
      <stop offset="0" stop-color="#ffd24d"/>
      <stop offset="1" stop-color="#f6c338"/>
    </radialGradient>
  </defs>
  <g id="gdrive-icon" transform="translate(-90.901 101.859)">
    <path id="Path_583" data-name="Path 583" d="M96.931-71.859,90.9-82.3l11.287-19.56,6.03,10.44Z" transform="translate(0 0)" fill="#0da960"/>
    <path id="Path_584" data-name="Path 584" d="M99.285-64.223l6.03-10.44H127.89l-6.03,10.44Z" transform="translate(-2.354 -7.636)" fill="url(#radial-gradient)"/>
    <path id="Path_585" data-name="Path 585" d="M129.942-82.3h-12.06l-11.287-19.56h12.06Z" transform="translate(-4.406 0)" fill="url(#radial-gradient-2)"/>
    <path id="Path_586" data-name="Path 586" d="M110.572-76.444h-5.257L107.931-81,99.285-66Z" transform="translate(-2.354 -5.856)" fill="#2d6fdd"/>
    <path id="Path_587" data-name="Path 587" d="M121.267-76.444h12.06L118.651-81Z" transform="translate(-7.791 -5.856)" fill="#e5b93c"/>
    <path id="Path_588" data-name="Path 588" d="M109.984-86.859l2.641-4.56-6.03-10.44Z" transform="translate(-4.406 0)" fill="#0c9b57"/>
  </g>
</svg>
