<svg xmlns="http://www.w3.org/2000/svg" width="41.355" height="30" viewBox="0 0 41.355 30">
  <g id="gmail-icon" transform="translate(-22.219 97.556)">
    <rect id="Rectangle_1124" data-name="Rectangle 1124" width="41.355" height="30" rx="3.302" transform="translate(22.219 -97.556)" fill="#d6d1c4"/>
    <path id="Path_579" data-name="Path 579" d="M68-93.236v23.745a2.709,2.709,0,0,1-2.71,2.71H62L46.887-77.818Z" transform="translate(-4.424 -0.775)" fill="#a9a89f"/>
    <path id="Path_580" data-name="Path 580" d="M29.891-66.781,64.7-92.2v-1.035L28.473-66.781Z" transform="translate(-1.122 -0.775)" fill="#abaaa0"/>
    <path id="Path_581" data-name="Path 581" d="M71.583-94.847v24.581a2.652,2.652,0,0,1-.111.765,2.707,2.707,0,0,1-2.6,1.945h-2V-96.185l.13-.1,1.748-1.276h.123A2.709,2.709,0,0,1,71.583-94.847Z" transform="translate(-8.008 0)" fill="#9e3223"/>
    <path id="Path_582" data-name="Path 582" d="M60.864-97.556h-.123L58.993-96.28l-.13.1L43.037-84.627,26.93-96.391l-1.6-1.165h-.4a2.709,2.709,0,0,0-2.71,2.709v24.581a2.652,2.652,0,0,0,.111.765,2.707,2.707,0,0,0,2.6,1.945h2V-89.937L38.62-81.4l3.843,2.807.708.518L47.589-81.3l11.274-8.234.13-.094,4.581-3.345v-1.872A2.709,2.709,0,0,0,60.864-97.556Z" transform="translate(0 0)" fill="#e74f3d"/>
  </g>
</svg>
