<svg xmlns="http://www.w3.org/2000/svg" width="42.293" height="29.603" viewBox="0 0 42.293 29.603">
  <g id="salesforce-icon" transform="translate(-26.219 42.025)">
    <path id="Path_589" data-name="Path 589" d="M43.819-38.8a7.409,7.409,0,0,1,5.363-2.3,7.487,7.487,0,0,1,6.525,3.868,9.016,9.016,0,0,1,3.688-.784,9.158,9.158,0,0,1,9.118,9.2,9.158,9.158,0,0,1-9.118,9.2,9.074,9.074,0,0,1-1.8-.179,6.665,6.665,0,0,1-5.818,3.414,6.632,6.632,0,0,1-2.916-.671,7.606,7.606,0,0,1-7,4.633A7.609,7.609,0,0,1,34.728-17.4a6.947,6.947,0,0,1-1.45.152,7.1,7.1,0,0,1-7.059-7.133,7.144,7.144,0,0,1,3.53-6.178,8.161,8.161,0,0,1-.676-3.262,8.209,8.209,0,0,1,8.215-8.2A8.2,8.2,0,0,1,43.819-38.8" fill="#00a1e0"/>
    <path id="Path_590" data-name="Path 590" d="M33.646-24.142c-.026.069.01.084.018.1a2.381,2.381,0,0,0,.242.146,2.572,2.572,0,0,0,1.265.3c.867,0,1.406-.462,1.406-1.2v-.014c0-.687-.608-.937-1.178-1.116l-.074-.025c-.43-.139-.8-.26-.8-.543v-.015c0-.242.217-.421.553-.421a2.5,2.5,0,0,1,1.1.282s.084.054.115-.027c.016-.043.162-.432.176-.475a.08.08,0,0,0-.042-.1,2.466,2.466,0,0,0-1.243-.334H35.1a1.212,1.212,0,0,0-1.348,1.167v.015c0,.725.612.96,1.184,1.123l.092.029c.418.128.778.238.778.533v.014c0,.269-.234.469-.611.469a2.056,2.056,0,0,1-1.118-.322c-.06-.036-.1-.062-.143-.09a.069.069,0,0,0-.115.039l-.171.475Z" transform="translate(-1.301 -2.532)" fill="#fff"/>
    <path id="Path_591" data-name="Path 591" d="M49.049-24.142c-.026.069.01.084.018.1a2.577,2.577,0,0,0,.242.146,2.572,2.572,0,0,0,1.265.3c.867,0,1.406-.462,1.406-1.2v-.014c0-.687-.608-.937-1.178-1.116l-.074-.025c-.43-.139-.8-.26-.8-.543v-.015c0-.242.217-.421.553-.421a2.5,2.5,0,0,1,1.1.282s.084.054.115-.027c.017-.043.162-.432.176-.475a.08.08,0,0,0-.042-.1,2.463,2.463,0,0,0-1.243-.334H50.5a1.212,1.212,0,0,0-1.348,1.167v.015c0,.725.612.96,1.185,1.123l.092.029c.418.128.778.238.778.533v.014c0,.269-.234.469-.612.469a2.054,2.054,0,0,1-1.117-.322c-.061-.036-.1-.06-.143-.09a.074.074,0,0,0-.115.039l-.172.475Z" transform="translate(-4.004 -2.532)" fill="#fff"/>
    <path id="Path_592" data-name="Path 592" d="M58.991-25.595a1.783,1.783,0,0,1-.233.984.778.778,0,0,1-.7.344.77.77,0,0,1-.7-.344,1.806,1.806,0,0,1-.228-.984,1.789,1.789,0,0,1,.228-.98.773.773,0,0,1,.7-.341.781.781,0,0,1,.7.341,1.766,1.766,0,0,1,.233.98m.724-.778a1.744,1.744,0,0,0-.33-.629,1.6,1.6,0,0,0-.556-.423,1.84,1.84,0,0,0-.776-.155,1.841,1.841,0,0,0-.777.155A1.605,1.605,0,0,0,56.72-27a1.764,1.764,0,0,0-.33.629,2.766,2.766,0,0,0-.106.778,2.762,2.762,0,0,0,.106.778,1.764,1.764,0,0,0,.33.629,1.556,1.556,0,0,0,.557.42,1.87,1.87,0,0,0,.777.152,1.869,1.869,0,0,0,.776-.152,1.553,1.553,0,0,0,.556-.42,1.738,1.738,0,0,0,.33-.629,2.741,2.741,0,0,0,.106-.778,2.741,2.741,0,0,0-.106-.778" transform="translate(-5.275 -2.535)" fill="#fff"/>
    <path id="Path_593" data-name="Path 593" d="M67.064-24.379a.069.069,0,0,0-.092-.044,1.673,1.673,0,0,1-.336.1,2.583,2.583,0,0,1-.4.028,1.1,1.1,0,0,1-.828-.31A1.379,1.379,0,0,1,65.1-25.6a1.535,1.535,0,0,1,.277-.954.946.946,0,0,1,.8-.354,2.412,2.412,0,0,1,.765.11s.058.025.084-.05c.063-.176.11-.3.178-.495a.065.065,0,0,0-.045-.085,2.815,2.815,0,0,0-.483-.122,3.645,3.645,0,0,0-.543-.037,1.964,1.964,0,0,0-.807.156,1.673,1.673,0,0,0-.584.422,1.807,1.807,0,0,0-.352.629,2.506,2.506,0,0,0-.118.78,2.084,2.084,0,0,0,.482,1.441,1.832,1.832,0,0,0,1.43.538,2.946,2.946,0,0,0,1.026-.184.066.066,0,0,0,.03-.086l-.178-.491Z" transform="translate(-6.677 -2.534)" fill="#fff"/>
    <path id="Path_594" data-name="Path 594" d="M69.012-26a1.423,1.423,0,0,1,.2-.578.781.781,0,0,1,.7-.355.76.76,0,0,1,.687.355A1.207,1.207,0,0,1,70.76-26Zm2.438-.512a1.528,1.528,0,0,0-.314-.574,1.428,1.428,0,0,0-.465-.355,1.789,1.789,0,0,0-.7-.143,1.906,1.906,0,0,0-.809.157,1.613,1.613,0,0,0-.565.43,1.768,1.768,0,0,0-.331.637,2.748,2.748,0,0,0-.108.782,2.616,2.616,0,0,0,.111.782,1.617,1.617,0,0,0,.355.623,1.61,1.61,0,0,0,.617.408,2.465,2.465,0,0,0,.89.144,2.56,2.56,0,0,0,1.234-.246c.027-.015.053-.041.021-.117l-.161-.449a.07.07,0,0,0-.092-.043,2.373,2.373,0,0,1-1.007.181,1.162,1.162,0,0,1-.839-.289A1.157,1.157,0,0,1,69-25.392l2.451,0a.073.073,0,0,0,.071-.064,2.633,2.633,0,0,0-.073-1.055Z" transform="translate(-7.358 -2.535)" fill="#fff"/>
    <path id="Path_595" data-name="Path 595" d="M45.2-26a1.423,1.423,0,0,1,.2-.578.781.781,0,0,1,.7-.355.76.76,0,0,1,.687.355A1.216,1.216,0,0,1,46.95-26Zm2.437-.512a1.527,1.527,0,0,0-.313-.574,1.445,1.445,0,0,0-.465-.355,1.792,1.792,0,0,0-.7-.143,1.906,1.906,0,0,0-.809.157,1.605,1.605,0,0,0-.565.43,1.77,1.77,0,0,0-.332.637,2.778,2.778,0,0,0-.107.782,2.616,2.616,0,0,0,.111.782,1.606,1.606,0,0,0,.355.623,1.613,1.613,0,0,0,.616.408,2.472,2.472,0,0,0,.89.144,2.565,2.565,0,0,0,1.235-.246c.027-.015.053-.041.02-.117l-.159-.449a.071.071,0,0,0-.093-.043,2.363,2.363,0,0,1-1.007.181,1.161,1.161,0,0,1-.838-.289,1.157,1.157,0,0,1-.285-.815l2.451,0a.073.073,0,0,0,.071-.064,2.625,2.625,0,0,0-.073-1.055Z" transform="translate(-3.18 -2.535)" fill="#fff"/>
    <path id="Path_596" data-name="Path 596" d="M38.742-24.392a.49.49,0,0,1-.141-.145.588.588,0,0,1-.073-.319.535.535,0,0,1,.219-.474,1.1,1.1,0,0,1,.712-.177,5.012,5.012,0,0,1,.665.057v1.114h0a5.029,5.029,0,0,1-.662.088,1.1,1.1,0,0,1-.719-.143m.975-1.722c-.1-.007-.228-.012-.383-.012a2.328,2.328,0,0,0-.6.078,1.6,1.6,0,0,0-.512.237,1.19,1.19,0,0,0-.355.4,1.18,1.18,0,0,0-.131.565,1.289,1.289,0,0,0,.112.56,1.018,1.018,0,0,0,.32.383,1.355,1.355,0,0,0,.5.216,2.948,2.948,0,0,0,.649.066,4.455,4.455,0,0,0,.745-.062c.241-.041.536-.1.618-.12s.172-.044.172-.044a.077.077,0,0,0,.056-.08v-2.242a1.373,1.373,0,0,0-.39-1.082,1.665,1.665,0,0,0-1.126-.34,4.039,4.039,0,0,0-.656.061,2.367,2.367,0,0,0-.756.276.075.075,0,0,0-.021.1l.173.467a.062.062,0,0,0,.08.04.334.334,0,0,0,.04-.02,2.481,2.481,0,0,1,1.069-.249.987.987,0,0,1,.606.158c.134.1.2.257.2.584v.1c-.21-.031-.4-.048-.4-.048" transform="translate(-2.02 -2.534)" fill="#fff"/>
    <path id="Path_597" data-name="Path 597" d="M63.637-27.369a.065.065,0,0,0-.036-.087,2.078,2.078,0,0,0-.411-.071,1.213,1.213,0,0,0-.632.1,1.11,1.11,0,0,0-.415.305v-.3a.071.071,0,0,0-.07-.074h-.628a.071.071,0,0,0-.071.074v3.657a.075.075,0,0,0,.075.074h.644a.074.074,0,0,0,.074-.074v-1.827a2.131,2.131,0,0,1,.082-.643.926.926,0,0,1,.214-.361.747.747,0,0,1,.3-.181,1.166,1.166,0,0,1,.329-.047,1.351,1.351,0,0,1,.27.034c.047,0,.073-.024.089-.067.042-.112.162-.448.184-.515" transform="translate(-6.168 -2.543)" fill="#fff"/>
    <path id="Path_598" data-name="Path 598" d="M55.888-29.407a2.1,2.1,0,0,0-.242-.058,1.875,1.875,0,0,0-.333-.026,1.4,1.4,0,0,0-1.038.373,2.026,2.026,0,0,0-.493,1.112l-.03.165h-.557a.084.084,0,0,0-.082.072l-.091.51c-.007.048.015.078.079.078h.542l-.549,3.068a3.869,3.869,0,0,1-.147.6,1.235,1.235,0,0,1-.172.349.452.452,0,0,1-.224.172.893.893,0,0,1-.289.042,1.134,1.134,0,0,1-.2-.021.628.628,0,0,1-.133-.043.067.067,0,0,0-.088.039c-.02.053-.164.449-.182.5a.075.075,0,0,0,.038.1,2.075,2.075,0,0,0,.224.065,1.478,1.478,0,0,0,.359.034,1.81,1.81,0,0,0,.6-.093,1.136,1.136,0,0,0,.453-.316,1.621,1.621,0,0,0,.318-.549,4.638,4.638,0,0,0,.215-.823l.552-3.125h.808a.082.082,0,0,0,.082-.072l.092-.51c.006-.049-.015-.079-.08-.079h-.784a3.38,3.38,0,0,1,.129-.552.718.718,0,0,1,.172-.261.515.515,0,0,1,.205-.128.841.841,0,0,1,.263-.038,1.085,1.085,0,0,1,.2.02,1.241,1.241,0,0,1,.125.031c.08.024.091,0,.106-.038l.188-.515a.066.066,0,0,0-.045-.086" transform="translate(-4.464 -2.199)" fill="#fff"/>
    <path id="Path_599" data-name="Path 599" d="M43.338-24.088a.071.071,0,0,1-.07.074h-.651a.071.071,0,0,1-.07-.074V-29.32a.071.071,0,0,1,.07-.074h.651a.071.071,0,0,1,.07.074v5.232Z" transform="translate(-2.865 -2.216)" fill="#fff"/>
  </g>
</svg>
